ffmpeg started on 2016-11-27 at 09:34:50
Report written to "Output/NVENCh264/results/ffmpeg/crowd_run_2160p50llhq7000k.log"
Command line:
Tools/ffmpeg/ffmpeg -benchmark -y -i Input/y4m/crowd_run_2160p50.y4m -c:v h264_nvenc -preset llhq -b:v 7000k -an Output/NVENCh264/encoded/crowd_run_2160p50llhq7000k.mkv
ffmpeg version N-82227-gdb23fde Copyright (c) 2000-2016 the FFmpeg developers
  built with gcc 5.4.0 (Ubuntu 5.4.0-6ubuntu1~16.04.2) 20160609
  configuration: --prefix=/home/jaroslav/ffmpeg_build --pkg-config-flags=--static --extra-cflags=-I/home/jaroslav/ffmpeg_build/include --extra-ldflags=-L/home/jaroslav/ffmpeg_build/lib --bindir=/home/jaroslav/bin --enable-gpl --enable-libass --enable-libfdk-aac --enable-libfreetype --enable-libmp3lame --enable-libopus --enable-libtheora --enable-libvorbis --enable-libvpx --enable-libx264 --enable-libx265 --enable-nvenc --enable-libmfx --enable-libxvid --enable-libgsm --enable-libopencore-amrnb --enable-version3 --enable-nonfree
  libavutil      55. 35.100 / 55. 35.100
  libavcodec     57. 66.101 / 57. 66.101
  libavformat    57. 57.100 / 57. 57.100
  libavdevice    57.  2.100 / 57.  2.100
  libavfilter     6. 66.100 /  6. 66.100
  libswscale      4.  3.100 /  4.  3.100
  libswresample   2.  4.100 /  2.  4.100
  libpostproc    54.  2.100 / 54.  2.100
Input #0, yuv4mpegpipe, from 'Input/y4m/crowd_run_2160p50.y4m':
  Duration: 00:00:10.00, start: 0.000000, bitrate: 4976642 kb/s
    Stream #0:0: Video: rawvideo (I420 / 0x30323449), yuv420p(progressive), 3840x2160, SAR 1:1 DAR 16:9, 50 fps, 50 tbr, 50 tbn, 50 tbc
[h264_nvenc @ 0x3d471c0] The variable bitrate rate-control requires the 'qmin' and/or 'qmax' option set.
Output #0, matroska, to 'Output/NVENCh264/encoded/crowd_run_2160p50llhq7000k.mkv':
  Metadata:
    encoder         : Lavf57.57.100
    Stream #0:0: Video: h264 (h264_nvenc) (Main) (H264 / 0x34363248), yuv420p, 3840x2160 [SAR 1:1 DAR 16:9], q=-1--1, 7000 kb/s, 50 fps, 1k tbn, 50 tbc
    Metadata:
      encoder         : Lavc57.66.101 h264_nvenc
    Side data:
      cpb: bitrate max/min/avg: 0/0/7000000 buffer size: 14000000 vbv_delay: -1
Stream mapping:
  Stream #0:0 -> #0:0 (rawvideo (native) -> h264 (h264_nvenc))
Press [q] to stop, [?] for help
frame=    3 fps=0.0 q=0.0 size=       0kB time=00:00:00.00 bitrate=N/A speed=   0x    frame=   14 fps= 11 q=0.0 size=       0kB time=00:00:00.00 bitrate=N/A speed=   0x    frame=   23 fps= 13 q=0.0 size=       0kB time=00:00:00.00 bitrate=N/A speed=   0x    frame=   34 fps= 15 q=47.0 size=       1kB time=00:00:00.06 bitrate=  98.0kbits/s speed=0.0267x    frame=   52 fps= 19 q=46.0 size=       1kB time=00:00:00.42 bitrate=  14.2kbits/s speed=0.15x    frame=   70 fps= 21 q=46.0 size=       1kB time=00:00:00.78 bitrate=   7.7kbits/s speed=0.235x    frame=   88 fps= 23 q=45.0 size=       1kB time=00:00:01.14 bitrate=   5.2kbits/s speed=0.297x    frame=  106 fps= 24 q=45.0 size=       1kB time=00:00:01.50 bitrate=   4.0kbits/s speed=0.344x    frame=  124 fps= 25 q=46.0 size=       1kB time=00:00:01.86 bitrate=   3.2kbits/s speed=0.381x    frame=  139 fps= 16 q=46.0 size=       1kB time=00:00:02.16 bitrate=   2.8kbits/s speed=0.242x    frame=  156 fps= 17 q=46.0 size=       1kB time=00:00:02.50 bitrate=   2.4kbits/s speed=0.266x    frame=  170 fps= 17 q=46.0 size=       1kB time=00:00:02.78 bitrate=   2.1kbits/s speed=0.275x    frame=  187 fps= 18 q=46.0 size=       1kB time=00:00:03.12 bitrate=   1.9kbits/s speed=0.294x    frame=  204 fps= 18 q=46.0 size=       1kB time=00:00:03.46 bitrate=   1.7kbits/s speed=0.311x    frame=  221 fps= 19 q=46.0 size=       1kB time=00:00:03.80 bitrate=   1.6kbits/s speed=0.327x    frame=  238 fps= 20 q=45.0 size=       1kB time=00:00:04.14 bitrate=   1.4kbits/s speed=0.341x    frame=  256 fps= 20 q=45.0 size=       1kB time=00:00:04.50 bitrate=   1.3kbits/s speed=0.355x    frame=  274 fps= 21 q=46.0 size=       1kB time=00:00:04.86 bitrate=   1.2kbits/s speed=0.369x    frame=  290 fps= 21 q=46.0 size=    4263kB time=00:00:05.18 bitrate=6740.9kbits/s speed=0.378x    frame=  308 fps= 22 q=45.0 size=    4263kB time=00:00:05.54 bitrate=6302.9kbits/s speed=0.39x    frame=  326 fps= 22 q=45.0 size=    4263kB time=00:00:05.90 bitrate=5918.4kbits/s speed= 0.4x    frame=  344 fps= 23 q=45.0 size=    4263kB time=00:00:06.26 bitrate=5578.1kbits/s speed=0.41x    frame=  362 fps= 23 q=46.0 size=    4263kB time=00:00:06.62 bitrate=5274.8kbits/s speed=0.42x    frame=  370 fps= 23 q=45.0 size=    4263kB time=00:00:06.78 bitrate=5150.3kbits/s speed=0.416x    frame=  388 fps= 23 q=45.0 size=    4263kB time=00:00:07.14 bitrate=4890.7kbits/s speed=0.425x    frame=  406 fps= 23 q=45.0 size=    4263kB time=00:00:07.50 bitrate=4656.0kbits/s speed=0.433x    frame=  424 fps= 24 q=47.0 size=    4263kB time=00:00:07.86 bitrate=4442.7kbits/s speed=0.441x    frame=  442 fps= 24 q=47.0 size=    4263kB time=00:00:08.22 bitrate=4248.2kbits/s speed=0.448x    frame=  455 fps= 24 q=46.0 size=    4263kB time=00:00:08.48 bitrate=4118.0kbits/s speed=0.447x    frame=  473 fps= 24 q=47.0 size=    4263kB time=00:00:08.84 bitrate=3950.3kbits/s speed=0.454x    frame=  491 fps= 25 q=47.0 size=    4263kB time=00:00:09.20 bitrate=3795.7kbits/s speed=0.46x    frame=  498 fps= 24 q=47.0 size=    4263kB time=00:00:09.34 bitrate=3738.8kbits/s speed=0.455x    frame=  500 fps= 24 q=46.0 Lsize=    8560kB time=00:00:09.98 bitrate=7025.4kbits/s speed=0.484x    
video:8555kB audio:0kB subtitle:0kB other streams:0kB global headers:0kB muxing overhead: 0.053514%
bench: utime=1.172s
bench: maxrss=1408604kB
